<?xml version="1.0" encoding="UTF-8"?>
<svg id="Livello_2" data-name="Livello 2" xmlns="http://www.w3.org/2000/svg" viewBox="0 0 158.38 127.54">
  <defs>
    <style>
      .cls-1 {
        fill: #fff;
      }
    </style>
  </defs>
  <g id="Livello_1-2" data-name="Livello 1">
    <path class="cls-1" d="M158.08,81.44c-1.77-7.2-5.74-21.17-12.39-32.83-.57-1-.75-2.17-.47-3.28,1.36-5.49,4.79-21.51,3.88-41.05-.13-2.69-2.61-4.67-5.26-4.2-6.8,1.22-19.55,4.79-31.62,15.17h-.01c-16.66-7.77-33.02-7.1-33.02-7.1,0,0-.24-.01-.69-.01-3.32,0-17.97,.41-32.39,7.06h-.01C34.03,4.84,21.3,1.28,14.52,.07c-2.64-.48-5.12,1.51-5.25,4.2-1.11,23.66,4.16,42.17,4.42,43.06h0C6.54,59.26,2.21,73.99,.32,81.45c-.77,3.04-.13,6.28,1.81,8.73,30.68,38.99,77.06,37.34,77.06,37.34h0c.06,0,46.98,0,77.02-37.38,1.97-2.44,2.63-5.67,1.88-8.71Zm-111.63,1.23c-2.85-.1-13.3-2.27-11.91-11.93,1.39-9.65,8.93-13.19,11.91-12.78,0,0,10.7-.44,12.65,12.71,1.97,13.13-9.79,12.09-12.65,12Zm32.7,27.28c-3.83,0-12.24-7.35-10.76-10.87,2.08-4.99,19.53-4.99,21.61,0,1.47,3.54-7,10.88-10.85,10.87Zm32.44-27.28c-2.85,.09-14.62,1.13-12.66-12,1.95-13.14,12.66-12.71,12.66-12.71,2.99-.41,10.53,3.13,11.91,12.78,1.39,9.66-9.06,11.83-11.91,11.93Z"/>
  </g>
</svg>